<mxfile host="app.diagrams.net" modified="2024-06-08T16:20:38.325Z" agent="Mozilla/5.0 (X11; Linux x86_64; rv:126.0) Gecko/20100101 Firefox/126.0" version="24.5.2" etag="xIm7ggo75mSTObb9Xr6l" type="github">
  <diagram name="Page-1" id="mxkC5NtyoNpEFsrs-8p-">
    <mxGraphModel>
      <root>
        <mxCell id="0" />
        <mxCell id="1" parent="0" />
      </root>
    </mxGraphModel>
  </diagram>
</mxfile>
